<svg width="29" height="29" viewBox="0 0 29 29" fill="none" xmlns="http://www.w3.org/2000/svg">
<path d="M16.2047 0.423828V2.35227C18.1121 2.35227 19.899 2.83437 21.5655 3.79859C23.1516 4.74272 24.4165 6.00826 25.3601 7.5952C26.3239 9.2625 26.8057 11.0503 26.8057 12.9587H28.7332C28.7332 10.6887 28.161 8.57951 27.0165 6.63098C25.9123 4.74272 24.4165 3.24618 22.5292 2.14134C20.5816 0.996333 18.4735 0.423828 16.2047 0.423828ZM6.23614 3.31648C5.69405 3.31648 5.22222 3.48723 4.82067 3.82872L1.71866 6.99257L1.80901 6.9323C1.30707 7.35415 0.97579 7.87643 0.815169 8.49916C0.674625 9.12188 0.71478 9.72452 0.935635 10.3071C1.49781 11.8739 2.25072 13.481 3.19437 15.1282C4.5195 17.3981 6.0956 19.437 7.92267 21.2449C10.854 24.1978 14.4981 26.528 18.855 28.2355H18.8851C19.4673 28.4364 20.0496 28.4766 20.6318 28.356C21.2342 28.2355 21.7662 27.9744 22.228 27.5726L25.2698 24.5293C25.6713 24.1275 25.8721 23.6354 25.8721 23.0528C25.8721 22.4502 25.6713 21.948 25.2698 21.5462L21.3245 17.5688C20.923 17.1671 20.421 16.9662 19.8187 16.9662C19.2164 16.9662 18.7144 17.1671 18.3129 17.5688L16.4155 19.4973C14.8896 18.7741 13.5645 17.8802 12.4401 16.8155C11.3158 15.7308 10.4223 14.415 9.75978 12.8683L11.6872 10.9398C12.1089 10.4979 12.3197 9.97562 12.3197 9.37298C12.3197 8.75026 12.0787 8.24806 11.5969 7.86639L11.6872 7.95678L7.65162 3.82872C7.25007 3.48723 6.77824 3.31648 6.23614 3.31648ZM16.2047 4.2807V6.20914C17.4294 6.20914 18.5538 6.51046 19.5778 7.11309C20.6218 7.71573 21.445 8.53933 22.0473 9.5839C22.6496 10.6084 22.9508 11.7333 22.9508 12.9587H24.8783C24.8783 11.3918 24.4868 9.93544 23.7037 8.58955C22.9207 7.28384 21.8767 6.23927 20.5716 5.45584C19.2264 4.67242 17.7708 4.2807 16.2047 4.2807ZM6.23614 5.24492C6.29638 5.24492 6.36665 5.27505 6.44696 5.33532L10.3922 9.37298C10.4123 9.45333 10.3922 9.52364 10.332 9.5839L7.47092 12.4163L7.68174 13.0189L8.07325 13.8626C8.39449 14.5456 8.76593 15.2085 9.18756 15.8513C9.76981 16.7553 10.4123 17.5287 11.115 18.1715C12.0587 19.0955 13.1931 19.9392 14.5182 20.7025C15.1807 21.0842 15.7429 21.3654 16.2047 21.5462L16.807 21.8174L19.7283 18.8946C19.7685 18.8545 19.7986 18.8344 19.8187 18.8344C19.8388 18.8344 19.8689 18.8545 19.909 18.8946L23.9748 22.9624C24.0149 23.0026 24.035 23.0327 24.035 23.0528C24.035 23.0528 24.0149 23.0729 23.9748 23.1131L20.9631 26.0961C20.5214 26.4778 20.0395 26.5783 19.5175 26.3975C15.4217 24.8105 12.0085 22.641 9.27791 19.889C7.59139 18.2016 6.11568 16.2832 4.85078 14.1338C3.94729 12.587 3.24457 11.0905 2.74263 9.64417V9.61404C2.66232 9.43324 2.65228 9.22232 2.71251 8.98127C2.77274 8.72012 2.88317 8.51925 3.04379 8.37863L6.02533 5.33532C6.08556 5.27505 6.15583 5.24492 6.23614 5.24492ZM16.2047 8.13758V10.066C17.0078 10.066 17.6905 10.3472 18.2526 10.9097C18.8148 11.4722 19.0959 12.1552 19.0959 12.9587H21.0234C21.0234 12.0949 20.8025 11.2914 20.3608 10.5481C19.9392 9.80487 19.3569 9.22232 18.614 8.80048C17.8712 8.35854 17.0681 8.13758 16.2047 8.13758Z" fill="black"/>
</svg>
