<svg width="50" height="50" viewBox="0 0 50 50" fill="none" xmlns="http://www.w3.org/2000/svg">
<path fill-rule="evenodd" clip-rule="evenodd" d="M6.25 22.9167C6.25 15.0604 6.25 11.1312 8.69167 8.69167C11.1312 6.25 15.0604 6.25 22.9167 6.25H27.0833C34.9396 6.25 38.8687 6.25 41.3083 8.69167C43.75 11.1312 43.75 15.0604 43.75 22.9167V27.0833C43.75 34.9396 43.75 38.8687 41.3083 41.3083C38.8687 43.75 34.9396 43.75 27.0833 43.75H22.9167C15.0604 43.75 11.1312 43.75 8.69167 41.3083C6.25 38.8687 6.25 34.9396 6.25 27.0833V22.9167ZM37.5 15.625C37.5 16.4538 37.1708 17.2487 36.5847 17.8347C35.9987 18.4208 35.2038 18.75 34.375 18.75C33.5462 18.75 32.7513 18.4208 32.1653 17.8347C31.5792 17.2487 31.25 16.4538 31.25 15.625C31.25 14.7962 31.5792 14.0013 32.1653 13.4153C32.7513 12.8292 33.5462 12.5 34.375 12.5C35.2038 12.5 35.9987 12.8292 36.5847 13.4153C37.1708 14.0013 37.5 14.7962 37.5 15.625ZM29.1667 27.0833C29.1667 28.1884 28.7277 29.2482 27.9463 30.0296C27.1649 30.811 26.1051 31.25 25 31.25C23.8949 31.25 22.8351 30.811 22.0537 30.0296C21.2723 29.2482 20.8333 28.1884 20.8333 27.0833C20.8333 25.9783 21.2723 24.9185 22.0537 24.1371C22.8351 23.3557 23.8949 22.9167 25 22.9167C26.1051 22.9167 27.1649 23.3557 27.9463 24.1371C28.7277 24.9185 29.1667 25.9783 29.1667 27.0833ZM33.3333 27.0833C33.3333 29.2935 32.4554 31.4131 30.8926 32.9759C29.3298 34.5387 27.2101 35.4167 25 35.4167C22.7899 35.4167 20.6702 34.5387 19.1074 32.9759C17.5446 31.4131 16.6667 29.2935 16.6667 27.0833C16.6667 24.8732 17.5446 22.7536 19.1074 21.1908C20.6702 19.628 22.7899 18.75 25 18.75C27.2101 18.75 29.3298 19.628 30.8926 21.1908C32.4554 22.7536 33.3333 24.8732 33.3333 27.0833Z" fill="#024950"/>
</svg>
