<svg width="36" height="36" viewBox="0 0 36 36" fill="none" xmlns="http://www.w3.org/2000/svg">
<path d="M28.8838 8.53155C28.6604 8.41603 28.443 8.2894 28.2323 8.15214C27.6201 7.74732 27.0587 7.27037 26.5603 6.73155C25.3117 5.30361 24.8456 3.85508 24.675 2.84184H24.6809C24.5382 1.9992 24.597 1.45508 24.6073 1.45508H18.9235V23.4301C18.9235 23.7242 18.9235 24.0168 18.9117 24.3051C18.9117 24.3404 18.9073 24.3727 18.9059 24.4124C18.9059 24.4271 18.9059 24.4448 18.9014 24.461V24.4742C18.8418 25.2625 18.5892 26.024 18.1661 26.6917C17.743 27.3595 17.1623 27.913 16.475 28.3036C15.758 28.7115 14.947 28.9254 14.122 28.9242C11.475 28.9242 9.32792 26.7654 9.32792 24.0992C9.32792 21.4315 11.475 19.2727 14.122 19.2727C14.6235 19.2727 15.122 19.3521 15.5985 19.508L15.6059 13.7198C14.1588 13.5331 12.6888 13.6484 11.2886 14.0585C9.88833 14.4685 8.58831 15.1644 7.47056 16.1021C6.49094 16.9529 5.66731 17.9682 5.03674 19.1021C4.79703 19.5154 3.89115 21.1786 3.78233 23.8757C3.71321 25.4051 4.17351 26.9933 4.39262 27.6477V27.6624C4.52939 28.0477 5.06468 29.3654 5.93527 30.4757C6.63732 31.3668 7.46681 32.1498 8.39703 32.7992V32.7845L8.41027 32.7992C11.1603 34.6668 14.2117 34.5448 14.2117 34.5448C14.7397 34.5227 16.5088 34.5448 18.5176 33.5933C20.7456 32.5374 22.0132 30.9654 22.0132 30.9654C22.8237 30.0258 23.4682 28.9551 23.9191 27.7992C24.4338 26.4463 24.6044 24.8257 24.6044 24.1786V12.5183C24.6735 12.5595 25.5926 13.1668 25.5926 13.1668C25.5926 13.1668 26.9162 14.0154 28.9794 14.5668C30.4588 14.9595 32.4544 15.0433 32.4544 15.0433V9.40067C31.7559 9.47714 30.3367 9.25655 28.8823 8.53302" fill="#024950"/>
</svg>
