<svg width="48" height="48" viewBox="0 0 48 48" fill="none" xmlns="http://www.w3.org/2000/svg">
<g clip-path="url(#clip0_263_17468)">
<path d="M24.3853 6.35059H24.647C27.0647 6.35941 39.3147 6.44765 42.6176 7.33588C43.6161 7.60696 44.526 8.13536 45.2563 8.86826C45.9867 9.60116 46.5118 10.5129 46.7794 11.5124C47.0765 12.63 47.2853 14.1094 47.4265 15.6359L47.4559 15.9418L47.5206 16.7065L47.5441 17.0124C47.7353 19.7006 47.7588 22.2182 47.7618 22.7682V22.9888C47.7588 23.5594 47.7323 26.2476 47.5206 29.0476L47.497 29.3565L47.4706 29.6624C47.3235 31.3447 47.1059 33.0153 46.7794 34.2447C46.5118 35.2442 45.9867 36.1559 45.2563 36.8888C44.526 37.6217 43.6161 38.1501 42.6176 38.4212C39.2059 39.3388 26.2382 39.4035 24.4412 39.4065H24.0235C23.1147 39.4065 19.3559 39.3888 15.4147 39.2535L14.9147 39.2359L14.6588 39.2241L14.1559 39.2035L13.6529 39.1829C10.3882 39.0388 7.2794 38.8065 5.84705 38.4182C4.84889 38.1474 3.93925 37.6195 3.20896 36.8871C2.47867 36.1547 1.95329 35.2436 1.68528 34.2447C1.35881 33.0182 1.14117 31.3447 0.994107 29.6624L0.970577 29.3535L0.947048 29.0476C0.801058 27.0547 0.720623 25.0576 0.705872 23.0594L0.705872 22.6976C0.711754 22.0653 0.735283 19.88 0.894107 17.4682L0.914695 17.1653L0.923519 17.0124L0.947048 16.7065L1.01175 15.9418L1.04117 15.6359C1.18234 14.1094 1.39117 12.6271 1.68822 11.5124C1.95578 10.5129 2.48097 9.60116 3.21128 8.86826C3.9416 8.13536 4.85148 7.60696 5.84999 7.33588C7.28234 6.95353 10.3912 6.71823 13.6559 6.57117L14.1559 6.55059L14.6618 6.53294L14.9147 6.52412L15.4176 6.50353C18.2168 6.41354 21.0171 6.36353 23.8176 6.35353L24.3853 6.35059ZM19.5294 15.7918V29.9624L31.7559 22.88L19.5294 15.7918Z" fill="#024950"/>
</g>
<defs>
<clipPath id="clip0_263_17468">
<rect width="47.0588" height="47.0588" fill="white" transform="translate(0.705872 0.470703)"/>
</clipPath>
</defs>
</svg>
