<svg xmlns="http://www.w3.org/2000/svg" fill="none" viewBox="-1.565 -1.565 50 50" id="Hotel-Bed-5--Streamline-Plump"
     height="50" width="50">
    <desc>Hotel Bed 5 Streamline Icon: https://streamlinehq.com</desc>
    <g id="hotel-bed-5--bed-bedrooms-beds-bedroom-bunk-hotel">
        <path id="Ellipse 541" stroke="#EBFF00" stroke-linecap="round" stroke-linejoin="round"
              d="M8.124133333333335 21.393030333333336C8.118665166666666 25.32171279166667 12.368309479166667 27.783071312500002 15.773414979166668 25.823417083333336C17.35810920833333 24.911405000000002 18.333884020833334 23.22135091666667 18.33134522916667 21.393030333333336C18.336813395833335 17.46425022916667 14.087169083333334 15.002891708333333 10.682063583333335 16.962545937500003C9.097369354166668 17.874558020833334 8.121594541666667 19.56461210416667 8.124133333333335 21.393030333333336"
              stroke-width="3.13"></path>
        <path id="Rectangle 1672" stroke="#EBFF00" stroke-linecap="round" stroke-linejoin="round"
              d="M18.566183458333334 14.771568729166669C18.7049381875 13.377283875000002 19.852276729166668 12.335109895833336 21.251639166666667 12.2778894375C26.5890580625 12.057405145833336 31.520172645833334 12.377976416666668 35.47951589583334 12.83417775C41.04864835416667 13.475222645833336 44.87021333333334 18.351264979166668 44.87021333333334 23.957014625000003V24.45520366666667C44.87021333333334 25.582622458333336 43.956248333333335 26.496587458333337 42.828731895833336 26.496587458333337H20.58110522916667C19.5919529375 26.496587458333337 18.750929375000002 25.788264583333337 18.6375625625 24.80731454166667C18.43475216666667 23.029965083333337 18.33251697916667 21.24255810416667 18.33134522916667 19.453588791666668C18.33134522916667 17.621460020833332 18.443637937500004 15.996438062500003 18.566183458333334 14.771568729166669Z"
              stroke-width="3.13"></path>
        <path id="Union" stroke="#EBFF00" stroke-linecap="round" stroke-linejoin="round"
              d="M6.061267458333334 7.1365433750000005C7.209582458333334 7.220225854166667 7.884315166666668 8.1603599375 7.934309833333335 9.310627854166668C8.021019333333333 11.30621575 8.124133333333335 15.373750583333335 8.124133333333335 23.434414125000004C8.124133333333335 24.591907833333334 8.122082770833334 25.667769625000002 8.117981645833336 26.666100625000002C10.536083062500001 26.584371062500004 15.078371937500002 26.496587458333337 23.435000000000002 26.496587458333337H42.81037447916667C43.94140616666667 26.496587458333337 44.856933500000004 27.417290020833335 44.84882889583334 28.5482240625C44.81611754166667 33.31705127083334 44.74053966666667 36.038343000000005 44.67521460416667 37.557223937500005C44.62424347916667 38.707491854166676 43.950584875000004 39.648602395833336 42.80226987500001 39.73130841666667C42.13691116666667 39.77876429166667 41.46901366666667 39.779057229166675 40.80365495833333 39.73238252083334C39.65533995833334 39.648602395833336 38.980607250000006 38.707589500000005 38.930612583333335 37.557223937500005C38.88471904166667 36.513975854166674 38.835700833333334 34.903307833333336 38.79791189583334 32.45054214583334C36.39211385416667 32.5321740625 31.844747395833334 32.620934125000005 23.435000000000002 32.620934125000005C15.019100916666668 32.620934125000005 10.471832104166667 32.5321740625 8.067010520833334 32.45054214583334C8.046016666666668 34.153583125 8.001783104166666 35.85633116666667 7.934309833333335 37.55820039583334C7.884217520833333 38.70856595833334 7.209582458333334 39.648602395833336 6.061267458333334 39.73238252083334C5.7723334375 39.7527905 5.441704645833334 39.76607033333334 5.061960000000001 39.76607033333334S4.3515865625000005 39.7527905 4.062652541666667 39.73238252083334C2.914337541666667 39.648602395833336 2.239604833333334 38.70856595833334 2.1896101666666667 37.55820039583334C2.1029006666666668 35.562710145833336 1.9997866666666668 31.495077666666667 1.9997866666666668 23.434414125000004C1.9997866666666668 15.374824687500002 2.1029006666666668 11.30621575 2.1896101666666667 9.310627854166668C2.2397024791666666 8.1603599375 2.914337541666667 7.220225854166667 4.062652541666667 7.1365433750000005C4.3515865625000005 7.116135395833334 4.682215354166667 7.1028555625 5.061960000000001 7.1028555625S5.772431083333334 7.115061291666668 6.061267458333334 7.1365433750000005Z"
              stroke-width="3.13"></path>
    </g>
</svg>