<!DOCTYPE svg PUBLIC "-//W3C//DTD SVG 1.1//EN" "http://www.w3.org/Graphics/SVG/1.1/DTD/svg11.dtd">

<!-- Uploaded to: SVG Repo, www.svgrepo.com, Transformed by: SVG Repo Mixer Tools -->
<svg version="1.1" id="_x32_" xmlns="http://www.w3.org/2000/svg" xmlns:xlink="http://www.w3.org/1999/xlink" width="28px" height="28px" viewBox="0 0 512 512" xml:space="preserve" fill="#024950" stroke="#024950" stroke-width="18.432">

<g id="SVGRepo_bgCarrier" stroke-width="0"/>

<g id="SVGRepo_tracerCarrier" stroke-linecap="round" stroke-linejoin="round"/>

<g id="SVGRepo_iconCarrier"> <style type="text/css">  .st0{fill:#024950;}  </style> <g> <path class="st0" d="M453.047,429.766c-2.016-7.516-4.844-14.25-8.344-20.25c-6.109-10.516-14.234-18.703-23.188-25.188 c-6.719-4.875-13.891-8.844-21.188-12.266c-4.047-1.891-8.125-3.625-12.172-5.25c-0.969-11.328-19.922-20.547-19.516-53.688 c0.219-17.031,16.875-50.547-4.016-77.625c2.578-2.625,5.016-5.656,7.234-9.156c4.313-6.813,7.781-15.266,10.125-25.719 c0.672-2.906,0.969-5.781,0.969-8.625c0.016-5.922-1.375-11.563-3.734-16.625c-1.625-3.5-3.719-6.719-6.125-9.625 c1.234-4.563,2.734-10.688,4.063-17.875c1.844-9.969,3.375-21.922,3.375-34.516c0-8.109-0.641-16.5-2.297-24.781 c-1.234-6.203-3.047-12.359-5.609-18.266c-3.859-8.875-9.453-17.219-17.234-24.109c-7.203-6.375-16.234-11.453-27.141-14.719 c-4.609-5.516-9.359-10.203-14.266-14.109c-8.297-6.625-17.031-11.031-25.922-13.719S270.172,0,261.203,0 c-4.734,0-9.469,0.281-14.203,0.703c-4.453,0.391-8.141,0.859-11.438,1.406c-4.922,0.828-8.984,1.922-12.938,3.281 c-3.953,1.375-7.734,2.953-12.719,4.922c-1.891,0.734-4.375,1.828-7.375,3.344c-5.219,2.641-11.938,6.531-19.156,11.906 C172.578,33.625,160.641,45,151.344,60.406c-4.641,7.703-8.609,16.422-11.422,26.156c-2.797,9.734-4.422,20.5-4.422,32.266 c0,7.328,0.641,15.078,2,23.188c0,0.563,0.031,1.094,0.047,1.641c0.063,1.016,0.172,2.063,0.281,3.156 c0.172,1.625,0.359,3.281,0.516,4.688c0.063,0.703,0.125,1.328,0.172,1.813c0.016,0.25,0.031,0.453,0.047,0.594v0.172v0.047v0.938 l2,8.813c-2.875,3.125-5.344,6.609-7.266,10.453c-2.656,5.328-4.25,11.328-4.25,17.703c0,2.813,0.313,5.703,0.969,8.594l0,0 c1.578,6.969,3.641,13.063,6.109,18.359c3.297,7.047,7.344,12.703,11.859,17.125c-20.203,26.953-3.781,60.109-3.563,77.016 c0.406,32.719-18.063,42.125-19.469,53.25c-0.328,0.156-0.656,0.266-0.984,0.406c-8.266,3.297-16.641,7.047-24.625,11.75 c-5.969,3.531-11.75,7.594-17.031,12.453c-7.938,7.266-14.781,16.313-19.516,27.516c-4.75,11.219-7.375,24.5-7.359,40.172 c0,2.203,0.453,4.328,1.219,6.266c0.719,1.828,1.703,3.5,2.844,5.094c2.188,2.969,5,5.609,8.453,8.172 c6.031,4.453,14.078,8.641,24.469,12.563c15.594,5.875,36.5,11.156,63.516,15C182.953,509.594,216.078,512,256,512 c34.609,0,64.109-1.797,88.953-4.781c18.625-2.234,34.625-5.125,48.219-8.453c10.203-2.484,19.031-5.203,26.625-8.078 c5.672-2.156,10.656-4.406,14.984-6.703c3.25-1.734,6.125-3.516,8.672-5.344c3.797-2.75,6.859-5.594,9.188-8.813 c1.156-1.609,2.109-3.328,2.813-5.188s1.125-3.875,1.109-5.969C456.563,447.938,455.344,438.344,453.047,429.766z M146.328,196.938 h-0.016c-0.375-1.688-0.547-3.328-0.547-4.906c0-3.578,0.875-6.984,2.484-10.234c1.344-2.688,3.234-5.234,5.5-7.547 c3.844,5.813,7.016,10.406,8.172,11.563c3.766,3.75,4.297-5.109,2.5-15.063c-3.281-18.297,5.594-10.016,28.172-53.906 c45.125,10.031,124.016-37.938,124.016-37.938s0.938,21.891,15.984,41.953C346.875,139.891,355,184.563,355,184.563 s1.953-3.688,4.828-8.625c1.734,2.031,3.172,4.219,4.234,6.484c1.422,3.063,2.188,6.25,2.188,9.578c0,1.609-0.172,3.25-0.563,4.938 c-1.344,5.953-3.047,10.875-4.953,14.953c-2.875,6.109-6.172,10.328-9.625,13.422s-7.125,5.094-10.953,6.5l-3.703,1.344 l-1.297,3.719c-4.016,11.313-7.922,20.406-11.844,27.703s-7.828,12.766-11.875,17.047l-1.609,1.703l-0.484,2.266 c-1.828,8.344-3.641,17.563-3.625,28.469c0,3.375,0.156,6.875,0.547,10.578c0.453,4.328,1.438,8.391,2.938,12.141 c0.063,0.188,0.141,0.344,0.203,0.531L258.609,364l-56.266-26.109c1.734-4.047,2.906-8.484,3.406-13.25v-0.016 c0.375-3.688,0.547-7.188,0.547-10.563c0-10.906-1.797-20.156-3.625-28.5l-0.5-2.25l-1.594-1.688 c-4.047-4.297-7.969-9.766-11.875-17.063c-3.922-7.281-7.828-16.375-11.828-27.688l-1.328-3.688l-3.672-1.375 c-2.563-0.922-5.047-2.141-7.438-3.75c-3.609-2.422-7.016-5.719-10.156-10.656C151.156,212.484,148.344,205.875,146.328,196.938z M276.484,367.844l38.828-20.422c1.078,1.375,2.219,2.703,3.422,3.938c2.578,2.641,5.391,4.953,8.391,7.047l-50.063,78.172 l-5.563-38.375l14.188-15.047L276.484,367.844z M244.219,398.203l-5.25,36.125l-54.766-75.453c1.391-0.953,2.75-1.938,4.047-2.969 c2.922-2.344,5.641-4.984,8.016-7.938l42.922,19.922l-9.156,15.266L244.219,398.203z M439.422,459.531 c-0.563,0.938-1.875,2.5-4.078,4.281c-1.922,1.563-4.516,3.281-7.781,5.063c-5.703,3.125-13.453,6.391-23.297,9.469 c-14.75,4.656-34.219,8.906-58.781,11.969c-24.578,3.063-54.25,4.969-89.484,4.969c-34.031,0-62.891-1.766-86.953-4.656 c-18.063-2.172-33.422-4.969-46.25-8.094c-9.625-2.344-17.828-4.891-24.656-7.484c-5.125-1.938-9.469-3.906-13.047-5.813 c-2.688-1.438-4.938-2.859-6.766-4.172c-2.766-1.969-4.516-3.75-5.375-4.984c-0.438-0.609-0.656-1.047-0.75-1.297 c-0.031-0.094-0.047-0.141-0.047-0.172c0-9.359,1.047-17.359,2.891-24.328c1.609-6.094,3.828-11.359,6.516-16.047 c4.719-8.172,10.906-14.594,18.266-20.016c5.5-4.063,11.641-7.547,18.172-10.656c9.781-4.641,20.375-8.438,30.781-12.266 c8.75-3.234,17.359-6.484,25.266-10.5L260.578,484l76.609-119.594c3.828,1.969,7.813,3.766,11.922,5.469 c10.266,4.219,21.219,7.859,31.781,12.047c7.938,3.141,15.641,6.563,22.641,10.641c5.266,3.063,10.141,6.484,14.484,10.391 c6.5,5.891,11.844,12.875,15.672,21.797c3.828,8.938,6.141,19.906,6.156,33.875C439.828,458.703,439.734,459.031,439.422,459.531z"/> <rect x="318.625" y="449.188" class="st0" width="66.875" height="11.719"/> </g> </g>

</svg>