<!DOCTYPE svg PUBLIC "-//W3C//DTD SVG 1.1//EN" "http://www.w3.org/Graphics/SVG/1.1/DTD/svg11.dtd">

<!-- Uploaded to: SVG Repo, www.svgrepo.com, Transformed by: SVG Repo Mixer Tools -->
<svg version="1.1" id="Layer_1" xmlns="http://www.w3.org/2000/svg" xmlns:xlink="http://www.w3.org/1999/xlink" viewBox="0 0 511.999 511.999" xml:space="preserve" width="20px" height="20px" fill="#024950" stroke="#024950" stroke-width="15.35997">

<g id="SVGRepo_bgCarrier" stroke-width="0"/>

<g id="SVGRepo_tracerCarrier" stroke-linecap="round" stroke-linejoin="round"/>

<g id="SVGRepo_iconCarrier"> <g> <polygon style="fill:#024950;" points="207.853,271.997 192.146,271.997 192.146,296.145 167.853,296.145 167.853,231.853 192.146,231.853 192.146,239.995 207.853,239.995 207.853,216.146 152.146,216.146 152.146,311.852 207.853,311.852 "/> <rect x="176" y="248.146" style="fill:#024950;" width="56" height="15.707"/> <path style="fill:#024950;" d="M103.854,56.146H24.147v127.707h79.707V56.146z M88.147,168.146H39.853V71.853h48.293V168.146z"/> <rect x="47.999" y="144.146" style="fill:#024950;" width="32" height="15.707"/> <rect x="56.147" y="87.999" style="fill:#024950;" width="15.707" height="40"/> <rect x="32" y="192.146" style="fill:#024950;" width="16" height="15.707"/> <rect x="56" y="192.146" style="fill:#024950;" width="16" height="15.707"/> <rect x="80" y="192.146" style="fill:#024950;" width="16" height="15.707"/> <path style="fill:#024950;" d="M511.999,471.927V456.22H391.852V0.147H120.146v456.074H0v15.707h120.146v24.218H0v15.707h511.999 v-15.707H391.852v-24.219H511.999z M376.145,496.144H135.853V15.853h240.293L376.145,496.144L376.145,496.144z"/> </g> </g>

</svg>