<svg width="40" height="40" viewBox="0 0 40 40" fill="none" xmlns="http://www.w3.org/2000/svg">
<g id="Group 68">
<ellipse id="Ellipse 1" cx="19.6364" cy="19.9893" rx="19.6364" ry="19.9893" fill="#024950"/>
<g id="search icon">
<path id="Vector" d="M17.8081 13.4918C16.349 13.4918 14.9496 14.0859 13.9179 15.1434C12.8861 16.2008 12.3065 17.6351 12.3065 19.1306C12.3065 20.6261 12.8861 22.0604 13.9179 23.1178C14.9496 24.1753 16.349 24.7694 17.8081 24.7694C19.2672 24.7694 20.6665 24.1753 21.6983 23.1178C22.73 22.0604 23.3096 20.6261 23.3096 19.1306C23.3096 17.6351 22.73 16.2008 21.6983 15.1434C20.6665 14.0859 19.2672 13.4918 17.8081 13.4918ZM10.4727 19.1306C10.4728 17.9341 10.7516 16.7549 11.2858 15.6911C11.82 14.6272 12.5943 13.7094 13.5442 13.0139C14.4941 12.3184 15.5922 11.8653 16.7473 11.6923C17.9024 11.5193 19.0812 11.6313 20.1855 12.0191C21.2899 12.4069 22.288 13.0592 23.0969 13.9219C23.9058 14.7846 24.5022 15.8327 24.8364 16.9791C25.1706 18.1255 25.2331 19.3371 25.0186 20.5132C24.8041 21.6894 24.3188 22.796 23.603 23.7413L28.5425 28.804C28.7096 28.9812 28.802 29.2186 28.7999 29.465C28.7978 29.7114 28.7014 29.9471 28.5314 30.1214C28.3614 30.2956 28.1314 30.3945 27.891 30.3966C27.6506 30.3987 27.4189 30.304 27.246 30.1328L22.3065 25.0701C21.2222 25.933 19.9234 26.4666 18.5579 26.6104C17.1924 26.7543 15.8148 26.5025 14.582 25.8837C13.3492 25.2649 12.3104 24.304 11.584 23.1102C10.8575 21.9164 10.4725 20.5376 10.4727 19.1306Z" fill="white"/>
</g>
</g>
</svg>
